<svg width="41" height="41" viewBox="0 0 41 41" fill="none" xmlns="http://www.w3.org/2000/svg">
<path d="M21.7294 1.33349C21.3898 1.63542 18.7479 6.87825 18.7479 6.87825L16.7822 14.807L24.431 14.1056C24.431 14.1056 30.7935 2.27387 30.9225 2.00024C31.1521 1.50332 31.2747 1.29889 30.3972 1.29889C29.5198 1.29575 22.0471 1.05043 21.7294 1.33349Z" fill="#176CC7"/>
<path d="M25.6891 13.615C25.3085 13.4106 14.0995 13.2345 13.8353 13.615C13.5963 13.961 13.7315 15.7757 13.8227 15.9927C13.9862 16.3701 17.6062 18.015 17.6062 18.015L17.537 18.7635C17.537 18.7635 17.8327 18.839 19.9367 18.839C22.0408 18.839 22.4559 18.7321 22.4559 18.7321L22.4622 18.0559C22.4622 18.0559 25.7205 16.4707 25.8841 16.2506C26.0224 16.0682 26.0696 13.8194 25.6891 13.615ZM22.3521 16.4833C22.3521 16.4833 22.4559 16.021 22.2389 15.9141C22.0219 15.804 18.2981 15.8543 18.0025 15.87C17.7069 15.8858 17.7069 16.4141 17.7069 16.4141L15.3606 15.2064L15.3166 14.7567L24.2172 14.8196L24.1857 15.2442L22.3521 16.4833Z" fill="#F79429"/>
<path d="M18.6378 16.3198C18.3422 16.3198 18.1724 16.628 18.1724 17.1596C18.1724 17.6565 18.3422 18.0748 18.7165 18.0433C19.0247 18.0182 19.1316 17.5464 19.1033 17.1281C19.075 16.628 19.0121 16.3198 18.6378 16.3198Z" fill="#FDFFFF"/>
<path d="M9.21826 28.9629C9.21826 36.4985 16.0462 39.6342 20.5783 39.4989C25.8588 39.3417 31.5388 35.3349 31.0702 28.1452C30.6299 21.399 24.9499 18.3043 19.987 18.3389C14.2189 18.3829 9.21826 22.3803 9.21826 28.9629Z" fill="#F79429"/>
<path d="M20.3393 38.3604C20.2607 38.3604 20.1789 38.3604 20.1003 38.3573C17.7415 38.2787 15.411 37.2848 13.7063 35.6337C11.8822 33.8661 10.8821 31.4759 10.8946 28.9064C10.923 22.6319 16.408 19.7227 20.1286 19.7227H20.16C25.2016 19.7448 29.3405 23.6635 29.4569 28.9755C29.5072 31.3406 28.7524 33.6932 26.8527 35.5613C25.0789 37.2974 22.5125 38.3604 20.3393 38.3604ZM20.1223 20.7669C16.7854 20.7669 11.8508 23.4968 11.8382 28.9064C11.8287 32.9509 14.9612 37.1087 20.1789 37.2848C22.1666 37.3477 24.409 36.6118 26.0602 34.9889C27.7774 33.3 28.5479 31.0985 28.5133 28.9913C28.4379 24.4215 24.7015 20.7858 20.1663 20.7669C20.1569 20.7606 20.1317 20.7669 20.1223 20.7669Z" fill="#D25116"/>
<path d="M18.2697 19.3328C18.0527 19.034 15.8291 19.119 13.4357 21.179C11.0581 23.2264 10.7027 25.4909 11.1304 25.6104C11.6179 25.7456 12.2123 23.5567 14.266 21.7168C16.1531 20.0342 18.7006 19.9272 18.2697 19.3328ZM27.8276 27.5635C27.0696 27.6704 27.8559 29.9411 26.0978 32.4824C24.5724 34.6871 22.8426 35.4859 23.0439 35.9703C23.3144 36.6181 26.0852 35.0047 27.3684 32.3754C28.5289 29.9946 28.3905 27.4817 27.8276 27.5635Z" fill="#FEFFFA"/>
<path d="M8.02311 1.17003C7.82497 1.35244 15.4014 14.8448 15.4014 14.8448C15.4014 14.8448 16.6721 15.0083 19.5089 15.0335C22.3458 15.0587 23.7516 14.87 23.7516 14.87C23.7516 14.87 17.8609 1.30527 17.5086 1.17003C17.3357 1.10084 15.002 1.07568 12.7218 1.05051C10.4385 1.02221 8.21181 0.993903 8.02311 1.17003Z" fill="#2E9DF4"/>
<path d="M23.5722 26.3275C23.2074 23.1667 19.5277 22.9025 18.0023 24.1165C16.5178 25.299 16.6594 26.947 17.7004 27.1389C18.5212 27.2899 18.7351 26.6388 18.9741 26.34C19.5151 25.6701 20.3768 25.6072 20.9398 26.145C21.5782 26.7583 21.1851 28.2239 20.2259 28.2837C19.5119 28.3277 19.1503 28.29 19.059 28.4126C18.9301 28.5856 18.949 29.9474 19.0811 30.0984C19.232 30.2714 19.8359 30.1645 20.3548 30.1833C21.0687 30.2116 21.8267 31.2684 21.3266 32.0609C20.8077 32.8818 19.427 32.5138 18.9301 32.0169C18.2728 31.3596 17.6155 31.737 17.3953 31.9949C17.0493 32.4037 16.6814 33.3347 17.9583 34.2405C19.232 35.1462 23.0973 35.3192 23.8773 32.5138C24.5566 30.0638 22.9715 29.0574 22.9715 29.0574C22.9715 29.0574 23.7798 28.1296 23.5722 26.3275Z" fill="#D25116"/>
</svg>
