<svg width="41" height="41" viewBox="0 0 41 41" fill="none" xmlns="http://www.w3.org/2000/svg">
<path d="M21.7294 1.33352C21.3898 1.63545 18.7479 6.87828 18.7479 6.87828L16.7822 14.807L24.431 14.1057C24.431 14.1057 30.7935 2.2739 30.9225 2.00028C31.1521 1.50335 31.2747 1.29892 30.3972 1.29892C29.5198 1.29578 22.0471 1.05046 21.7294 1.33352Z" fill="#176CC7"/>
<path d="M25.6891 13.615C25.3085 13.4106 14.0995 13.2345 13.8353 13.615C13.5963 13.961 13.6309 15.5429 13.7472 15.7474C13.8636 15.9518 17.6314 17.7036 17.6314 17.7036L17.6283 18.3421C17.6283 18.3421 17.8358 18.8421 19.9367 18.8421C22.0376 18.8421 22.2547 18.4175 22.2547 18.4175L22.2735 17.7728C22.2735 17.7728 25.5727 16.1248 25.7457 15.9801C25.9218 15.8323 26.0696 13.8194 25.6891 13.615ZM22.2358 16.2349C22.2358 16.2349 22.2263 15.7946 22.0093 15.6845C21.7923 15.5744 18.2982 15.5933 18.0025 15.609C17.7069 15.6247 17.7069 16.1531 17.7069 16.1531L15.3166 14.9894V14.7567L24.2172 14.8196L24.2329 15.0838L22.2358 16.2349Z" fill="#FCC417"/>
<path d="M18.6378 16.0933C18.3422 16.0933 18.1724 16.4016 18.1724 16.9331C18.1724 17.43 18.3422 17.8483 18.7165 17.8168C19.0247 17.7917 19.1316 17.3199 19.1033 16.9016C19.075 16.4047 19.0121 16.0933 18.6378 16.0933Z" fill="#FDFFFF"/>
<path d="M9.1145 28.5321C9.1145 36.0677 15.9267 39.4235 20.4556 39.2631C25.45 39.0838 31.4319 35.1902 31.0702 28.0006C30.7274 21.1883 24.9971 17.9583 20.0342 17.9929C14.2661 18.0338 9.1145 21.9494 9.1145 28.5321Z" fill="#FCC417"/>
<path d="M20.2951 37.9516C20.2165 37.9516 20.1347 37.9516 20.0561 37.9485C17.6973 37.8698 15.3668 36.876 13.6622 35.2248C11.838 33.4573 10.8379 31.067 10.8505 28.4975C10.8788 22.2231 16.3638 19.3139 20.0844 19.3139H20.1158C25.1574 19.3359 29.2963 23.2547 29.4127 28.5667C29.463 30.9318 28.4943 33.4133 26.5947 35.2814C24.8209 37.0207 22.4684 37.9516 20.2951 37.9516ZM20.0781 20.3581C16.7412 20.3581 11.8066 23.088 11.794 28.4975C11.7845 32.5421 14.917 36.6999 20.1347 36.876C22.1224 36.9389 24.1698 36.1778 25.8241 34.5518C27.5414 32.8629 28.5069 30.6865 28.4723 28.5793C28.3968 24.0095 24.6605 20.3738 20.1253 20.3549C20.1127 20.3549 20.0875 20.3581 20.0781 20.3581Z" fill="#FA912C"/>
<path d="M18.1848 19.0623C17.9678 18.7635 15.5084 18.8201 13.1842 21.0909C10.9417 23.283 10.6995 25.3493 11.1304 25.4688C11.6179 25.604 12.2123 23.4151 14.2661 21.5752C16.1531 19.8895 18.6188 19.6567 18.1848 19.0623ZM27.6987 27.1986C26.9407 27.3055 27.727 29.5763 25.9689 32.1175C24.4435 34.3222 22.7137 35.121 22.915 35.6054C23.1855 36.2533 25.9563 34.6398 27.2395 32.0106C28.4032 29.6297 28.2648 27.1168 27.6987 27.1986Z" fill="#FEFFFA"/>
<path d="M17.5652 24.2234C17.4016 24.4655 17.5494 26.5885 17.6469 26.6828C17.8356 26.8715 19.2698 26.1953 19.2698 26.1953L19.2163 31.8722C19.2163 31.8722 18.1627 31.8596 18.0526 31.9005C17.8356 31.9823 17.8639 34.1712 18.0243 34.2782C18.1847 34.3851 22.484 34.4417 22.6476 34.2247C22.8111 34.0077 22.7702 32.0923 22.6948 32.0043C22.5595 31.8407 21.5311 31.9068 21.5311 31.9068C21.5311 31.9068 21.6192 23.5472 21.5908 23.2798C21.5625 23.0125 21.2669 22.8458 20.9147 22.9276C20.5624 23.0094 17.6689 24.0661 17.5652 24.2234Z" fill="#FA912C"/>
<path d="M8.02311 1.16995C7.82497 1.35237 15.4014 14.8447 15.4014 14.8447C15.4014 14.8447 16.6721 15.0083 19.5089 15.0334C22.3458 15.0586 23.7516 14.8699 23.7516 14.8699C23.7516 14.8699 17.8609 1.30519 17.5086 1.16995C17.3357 1.10076 15.002 1.0756 12.7218 1.05044C10.4385 1.02213 8.21181 0.993827 8.02311 1.16995Z" fill="#2E9DF4"/>
</svg>
