<svg width="41" height="41" viewBox="0 0 41 41" fill="none" xmlns="http://www.w3.org/2000/svg">
<path d="M21.7294 1.3335C21.3898 1.63543 18.7479 6.87827 18.7479 6.87827L16.7822 14.807L24.431 14.1056C24.431 14.1056 30.7935 2.27388 30.9225 2.00026C31.1521 1.50334 31.2747 1.29891 30.3972 1.29891C29.5198 1.29576 22.0471 1.05045 21.7294 1.3335Z" fill="#176CC7"/>
<path d="M25.6891 13.6151C25.3085 13.4107 14.0995 13.2345 13.8353 13.6151C13.5963 13.961 13.7315 15.7757 13.8227 15.9928C13.9862 16.3702 17.6062 18.015 17.6062 18.015L17.537 18.7636C17.537 18.7636 17.8327 18.839 19.9367 18.839C22.0408 18.839 22.4559 18.7321 22.4559 18.7321L22.4622 18.0559C22.4622 18.0559 25.7205 16.4708 25.8841 16.2506C26.0224 16.0682 26.0696 13.8195 25.6891 13.6151ZM22.3521 16.4834C22.3521 16.4834 22.4559 16.0211 22.2389 15.9141C22.0219 15.804 18.2981 15.8544 18.0025 15.8701C17.7069 15.8858 17.7069 16.4142 17.7069 16.4142L15.3166 14.9895V14.7567L24.2172 14.8196L24.2329 15.0838L22.3521 16.4834Z" fill="#CECDD2"/>
<path d="M18.6378 16.0933C18.3422 16.0933 18.1724 16.4015 18.1724 16.9331C18.1724 17.43 18.3422 17.8483 18.7165 17.8168C19.0247 17.7917 19.1316 17.3199 19.1033 16.9016C19.075 16.4047 19.0121 16.0933 18.6378 16.0933Z" fill="#FDFFFF"/>
<path d="M9.11133 28.9001C9.11133 36.4357 16.0462 39.6342 20.5783 39.499C25.8588 39.3418 31.4319 35.3349 31.0702 28.1453C30.7274 21.3331 24.9499 18.3044 19.987 18.339C14.2189 18.383 9.11133 22.3175 9.11133 28.9001Z" fill="#CECDD2"/>
<path d="M20.2951 38.0963C20.2165 38.0963 20.1347 38.0963 20.0561 38.0932C17.6973 38.0145 15.3668 37.0207 13.6622 35.3695C11.838 33.602 10.8379 31.2117 10.8505 28.6422C10.8788 22.3678 16.3638 19.4586 20.0844 19.4586H20.1158C25.1574 19.4806 29.2963 23.3994 29.4127 28.7114C29.463 31.0765 28.4943 33.558 26.5947 35.4261C24.8209 37.1654 22.4684 38.0963 20.2951 38.0963ZM20.0781 20.5028C16.7412 20.5028 11.8066 23.2327 11.794 28.6422C11.7845 32.6868 14.917 36.8446 20.1347 37.0207C22.1224 37.0836 24.1698 36.3225 25.8241 34.6965C27.5414 33.0076 28.5069 30.8312 28.4723 28.724C28.3905 24.1542 24.6542 20.5185 20.119 20.4965C20.1127 20.4965 20.0875 20.5028 20.0781 20.5028Z" fill="#9B9B9D"/>
<path d="M18.2697 19.3328C18.0527 19.034 15.8291 19.1189 13.4357 21.179C11.0581 23.2264 10.7027 25.4909 11.1304 25.6104C11.6179 25.7456 12.2123 23.5566 14.266 21.7168C16.1531 20.0342 18.7006 19.9272 18.2697 19.3328ZM27.6389 27.5886C26.8809 27.6956 27.6672 29.9663 25.9091 32.5075C24.3837 34.7122 22.6539 35.5111 22.8552 35.9954C23.1257 36.6433 25.8965 35.0299 27.1797 32.4006C28.3402 30.0229 28.2018 27.51 27.6389 27.5886Z" fill="#FEFFFA"/>
<path d="M8.02311 1.16998C7.82497 1.3524 15.4014 14.8448 15.4014 14.8448C15.4014 14.8448 16.6721 15.0083 19.5089 15.0335C22.3458 15.0586 23.7516 14.8699 23.7516 14.8699C23.7516 14.8699 17.8609 1.30522 17.5086 1.16998C17.3357 1.10079 15.002 1.07563 12.7218 1.05047C10.4385 1.02216 8.21181 0.993858 8.02311 1.16998Z" fill="#2E9DF4"/>
<path d="M17.8797 27.1577C18.2068 27.1609 18.4993 26.7174 18.7697 26.4469C19.3453 25.8682 19.9491 25.409 20.6379 26.0318C22.33 27.5697 18.9333 29.1297 17.6438 31.262C16.6814 32.8534 16.4864 34.0769 16.7537 34.404C17.0211 34.731 23.5282 34.7153 23.6163 34.5518C23.7043 34.3882 23.7956 32.2087 23.6446 32.1049C23.4936 32.0011 20.2951 32.0609 20.2951 32.0609C20.2951 32.0609 20.5624 31.4381 21.6601 30.4883C22.8646 29.4473 23.8301 28.0163 23.5723 26.3243C23.0376 22.8269 19.5151 22.698 17.9898 23.9151C16.5021 25.1008 16.8229 27.1451 17.8797 27.1577Z" fill="#9B9B9D"/>
</svg>
